# xmcd
#
# Track frame offsets: 
#        182
#        36487
#        77422
#        117437
#        151467
#        189597
#        203387
#        213927
#        242472
#        274287
#
# Disc length: 4327 seconds
#
# Revision: 16
# Processed by: cddbd v1.5.2PL0 Copyright (c) Steve Scherf et al.
# Submitted via: ExactAudioCopy v1.1
#
DISCID=8210e50a
DTITLE=Paul Oakenfold - Perfecto Presents Another World [CD2]
DYEAR=2000
DGENRE=Electronic
TTITLE0=Jamez Pres. Tatoine - Music
TTITLE1=Salt Tank - Eugina 2000 (Salt Tank's Reactivation Mix)
TTITLE2=Lost Witness - Song To The Siren (Original Mix)
TTITLE3=Skope - Back And Front
TTITLE4=Jan Johnston - Flesh (DJ Tiësto Mix)
TTITLE5=Vangelis - Rachel's Song
TTITLE6=Lisa Gerrard - Sacrifice
TTITLE7=Lost It.com - Animal
TTITLE8=Blackwatch - Northsky
TTITLE9=Delerium Feat. Sarah McLachlan - The Silence 2000 (DJ Tiësto's
TTITLE9=In Search Of Sunrise Remix)
EXTD=YEAR: 2000 ID3G: 52
EXTT0=
EXTT1=
EXTT2=
EXTT3=
EXTT4=
EXTT5=
EXTT6=
EXTT7=
EXTT8=
EXTT9=
PLAYORDER=
